<svg id="Filled" height="512" viewBox="0 0 512 512" width="512" xmlns="http://www.w3.org/2000/svg"><g><path d="m146-56h230a0 0 0 0 1 0 0v400a0 0 0 0 1 0 0h-230a10 10 0 0 1 -10-10v-380a10 10 0 0 1 10-10z" fill="#e6f8ff" transform="matrix(0 1 -1 0 400 -112)"/><path d="m136 272h342a10 10 0 0 1 10 10v204a10 10 0 0 1 -10 10h-342a0 0 0 0 1 0 0v-224a0 0 0 0 1 0 0z" fill="#f47b79"/><path d="m136 312h352v48h-352z" fill="#fffdfd"/><circle cx="120" cy="296" fill="#fbd373" r="96"/><circle cx="120" cy="296" fill="#fffbf1" r="64"/><rect fill="#fbd373" height="48" rx="10" width="192" x="24" y="448"/><rect fill="#fffbf1" height="48" rx="10" width="192" x="24" y="400"/><g><path d="m248 160a72 72 0 0 0 72 72v-72z" fill="#80daff"/><path d="m352 56a72 72 0 0 0 -72 72h72v72a72 72 0 0 0 0-144z" fill="#80daff"/><g><path d="m64 42a2.002 2.002 0 0 1 2-2h380a2.002 2.002 0 0 1 2 2v206h16v-206a18.02 18.02 0 0 0 -18-18h-380a18.02 18.02 0 0 0 -18 18v78h16z"/><path d="m48 136h16v64h-16z"/><path d="m478 264h-262a103.9943 103.9943 0 1 0 -151.3742 128h-30.6258a18.02 18.02 0 0 0 -18 18v28a17.8961 17.8961 0 0 0 3.04 10 17.8961 17.8961 0 0 0 -3.04 10v28a18.02 18.02 0 0 0 18 18h444a18.02 18.02 0 0 0 18-18v-62h-16v62a2.002 2.002 0 0 1 -2 2h-254.1107a18.0988 18.0988 0 0 0 .1107-2v-28a17.8961 17.8961 0 0 0 -3.04-10 17.8961 17.8961 0 0 0 3.04-10v-28a18.02 18.02 0 0 0 -18-18h-30.6258a104.7641 104.7641 0 0 0 19.6046-16h285.0212v32h16v-126a18.02 18.02 0 0 0 -18-18zm0 16a2.0023 2.0023 0 0 1 2 2v30h-256.3046q.3027-3.9609.3046-8a103.9228 103.9228 0 0 0 -2.7949-24zm-444 208a2.002 2.002 0 0 1 -2-2v-28a2.002 2.002 0 0 1 2-2h172a2.002 2.002 0 0 1 2 2v28a2.002 2.002 0 0 1 -2 2zm172-80a2.002 2.002 0 0 1 2 2v28a2.002 2.002 0 0 1 -2 2h-172a2.002 2.002 0 0 1 -2-2v-28a2.002 2.002 0 0 1 2-2zm-86-16a88 88 0 1 1 88-88 88.1 88.1 0 0 1 -88 88zm87.602-32a103.4525 103.4525 0 0 0 13.6031-32h258.7949v32z"/><path d="m416 392h16v16h-16z"/><path d="m384 392h16v16h-16z"/><path d="m448 392h16v16h-16z"/><path d="m288 440h56v16h-56z"/><path d="m360 440h64v16h-64z"/><path d="m120 232a72 72 0 1 0 72 72 72.0812 72.0812 0 0 0 -72-72zm0 128a56 56 0 1 1 56-56 56.0636 56.0636 0 0 1 -56 56z"/><path d="m250.3433 117.6567 11.3134-11.3134-40-40a7.9986 7.9986 0 0 0 -5.6567-2.3433h-128v16h124.686z"/><path d="m88 104h32v16h-32z"/><path d="m136 104h72v16h-72z"/><path d="m168 144h40v16h-40z"/><path d="m88 144h64v16h-64z"/><path d="m320 248a8 8 0 0 0 8-8v-72a8 8 0 0 0 -8-8h-72a8 8 0 0 0 -8 8 80.09 80.09 0 0 0 80 80zm-8-72v55.5024a64.1394 64.1394 0 0 1 -55.5024-55.5024z"/><path d="m352 216a80 80 0 1 0 -80-80 8 8 0 0 0 8 8h64v64a8 8 0 0 0 8 8zm-63.5024-88a64.0023 64.0023 0 1 1 71.5024 71.5024v-63.5024a8 8 0 0 0 -8-8z"/></g></g></g></svg>